HIERARCHY
ROOT hip
{
  OFFSET 0 0 0
  CHANNELS 6 Xposition Yposition Zposition Zrotation Yrotation Xrotation
  JOINT abdomen
  {
    OFFSET 0 20.6881 -0.73152
    CHANNELS 3 Zrotation Xrotation Yrotation
    JOINT chest
    {
      OFFSET 0 11.7043 -0.48768
      CHANNELS 3 Zrotation Xrotation Yrotation
      JOINT neck
      {
        OFFSET 0 22.1894 -2.19456
        CHANNELS 3 Zrotation Xrotation Yrotation
        JOINT head
        {
          OFFSET -0.24384 7.07133 1.2192
          CHANNELS 3 Zrotation Xrotation Yrotation
          JOINT leftEye
          {
            OFFSET 4.14528 8.04674 8.04672
            CHANNELS 3 Zrotation Xrotation Yrotation
            End Site
            {
              OFFSET 1 0 0
            }
          }
          JOINT rightEye
          {
            OFFSET -3.6576 8.04674 8.04672
            CHANNELS 3 Zrotation Xrotation Yrotation
            End Site
            {
              OFFSET 1 0 0
            }
          }
        }
      }
      JOINT rCollar
      {
        OFFSET -2.68224 19.2634 -4.8768
        CHANNELS 3 Zrotation Xrotation Yrotation
        JOINT rShldr
        {
          OFFSET -8.77824 -1.95073 1.46304
          CHANNELS 3 Zrotation Xrotation Yrotation
          JOINT rForeArm
          {
            OFFSET -28.1742 -1.7115 0.48768
            CHANNELS 3 Zrotation Xrotation Yrotation
            JOINT rHand
            {
              OFFSET -22.5879 0.773209 7.07136
              CHANNELS 3 Zrotation Xrotation Yrotation
              JOINT rThumb1
              {
                OFFSET -1.2192 -0.487915 3.41376
                CHANNELS 3 Zrotation Xrotation Yrotation
                JOINT rThumb2
                {
                  OFFSET -3.37035 -0.52449 3.41376
                  CHANNELS 3 Zrotation Xrotation Yrotation
                  End Site
                  {
                    OFFSET -1.78271 -1.18214 1.43049
                  }
                }
              }
              JOINT rIndex1
              {
                OFFSET -7.75947 0.938293 5.60832
                CHANNELS 3 Zrotation Xrotation Yrotation
                JOINT rIndex2
                {
                  OFFSET -2.54057 -0.884171 1.56538
                  CHANNELS 3 Zrotation Xrotation Yrotation
                  End Site
                  {
                    OFFSET -1.62519 -0.234802 1.16502
                  }
                }
              }
              JOINT rMid1
              {
                OFFSET -8.24714 1.18213 3.41376
                CHANNELS 3 Zrotation Xrotation Yrotation
                JOINT rMid2
                {
                  OFFSET -3.10165 -0.590103 1.0647
                  CHANNELS 3 Zrotation Xrotation Yrotation
                  End Site
                  {
                    OFFSET -2.48547 -0.328903 0.83742
                  }
                }
              }
              JOINT rRing1
              {
                OFFSET -8.82822 0.546677 1.51678
                CHANNELS 3 Zrotation Xrotation Yrotation
                JOINT rRing2
                {
                  OFFSET -2.60934 -0.819778 -0.0198488
                  CHANNELS 3 Zrotation Xrotation Yrotation
                  End Site
                  {
                    OFFSET -2.33842 -0.294052 0.168128
                  }
                }
              }
              JOINT rPinky1
              {
                OFFSET -8.27202 -0.0477905 -0.4584
                CHANNELS 3 Zrotation Xrotation Yrotation
                JOINT rPinky2
                {
                  OFFSET -1.82734 -0.647385 -0.700984
                  CHANNELS 3 Zrotation Xrotation Yrotation
                  End Site
                  {
                    OFFSET -1.69225 -0.51767 -0.607171
                  }
                }
              }
            }
          }
        }
      }
      JOINT lCollar
      {
        OFFSET 2.68224 19.2634 -4.8768
        CHANNELS 3 Zrotation Xrotation Yrotation
        JOINT lShldr
        {
          OFFSET 8.77824 -1.95073 1.46304
          CHANNELS 3 Zrotation Xrotation Yrotation
          JOINT lForeArm
          {
            OFFSET 28.1742 -1.7115 0.48768
            CHANNELS 3 Zrotation Xrotation Yrotation
            JOINT lHand
            {
              OFFSET 22.5879 0.773209 7.07136
              CHANNELS 3 Zrotation Xrotation Yrotation
              JOINT lThumb1
              {
                OFFSET 1.2192 -0.487915 3.41376
                CHANNELS 3 Zrotation Xrotation Yrotation
                JOINT lThumb2
                {
                  OFFSET 3.37035 -0.52449 3.41376
                  CHANNELS 3 Zrotation Xrotation Yrotation
                  End Site
                  {
                    OFFSET 1.78271 -1.18214 1.43049
                  }
                }
              }
              JOINT lIndex1
              {
                OFFSET 7.75947 0.938293 5.60832
                CHANNELS 3 Zrotation Xrotation Yrotation
                JOINT lIndex2
                {
                  OFFSET 2.54057 -0.884171 1.56538
                  CHANNELS 3 Zrotation Xrotation Yrotation
                  End Site
                  {
                    OFFSET 1.62519 -0.234802 1.16502
                  }
                }
              }
              JOINT lMid1
              {
                OFFSET 8.24714 1.18213 3.41376
                CHANNELS 3 Zrotation Xrotation Yrotation
                JOINT lMid2
                {
                  OFFSET 3.10165 -0.590103 1.0647
                  CHANNELS 3 Zrotation Xrotation Yrotation
                  End Site
                  {
                    OFFSET 2.48547 -0.328903 0.83742
                  }
                }
              }
              JOINT lRing1
              {
                OFFSET 8.82822 0.546677 1.51678
                CHANNELS 3 Zrotation Xrotation Yrotation
                JOINT lRing2
                {
                  OFFSET 2.60934 -0.819778 -0.0198488
                  CHANNELS 3 Zrotation Xrotation Yrotation
                  End Site
                  {
                    OFFSET 2.33842 -0.294052 0.168128
                  }
                }
              }
              JOINT lPinky1
              {
                OFFSET 8.27202 -0.0477905 -0.4584
                CHANNELS 3 Zrotation Xrotation Yrotation
                JOINT lPinky2
                {
                  OFFSET 1.82734 -0.647385 -0.700984
                  CHANNELS 3 Zrotation Xrotation Yrotation
                  End Site
                  {
                    OFFSET 1.69225 -0.51767 -0.607171
                  }
                }
              }
            }
          }
        }
      }
    }
  }
  JOINT rButtock
  {
    OFFSET -8.77824 4.35084 1.2192
    CHANNELS 3 Zrotation Xrotation Yrotation
    JOINT rThigh
    {
      OFFSET 0 -1.70687 -2.19456
      CHANNELS 3 Zrotation Xrotation Yrotation
      JOINT rShin
      {
        OFFSET 0 -36.8199 0.73152
        CHANNELS 3 Zrotation Xrotation Yrotation
        JOINT rFoot
        {
          OFFSET 0.73152 -45.1104 -5.12064
          CHANNELS 3 Zrotation Xrotation Yrotation
          End Site
          {
            OFFSET -1.1221 -3.69964 12.103
          }
        }
      }
    }
  }
  JOINT lButtock
  {
    OFFSET 8.77824 4.35084 1.2192
    CHANNELS 3 Zrotation Xrotation Yrotation
    JOINT lThigh
    {
      OFFSET 0 -1.70687 -2.19456
      CHANNELS 3 Zrotation Xrotation Yrotation
      JOINT lShin
      {
        OFFSET 0 -36.8199 0.73152
        CHANNELS 3 Zrotation Xrotation Yrotation
        JOINT lFoot
        {
          OFFSET -0.73152 -45.1104 -5.12064
          CHANNELS 3 Zrotation Xrotation Yrotation
          End Site
          {
            OFFSET 1.1221 -3.69964 12.103
          }
        }
      }
    }
  }
}
MOTION
Frames:	9
Frame Time:	0.00833333
154.054 85.3326 -3.52126 0.0 0.0 0.0 1.16875 -0.0049388 0.0322836 0.322753 -0.00472402 0.0559149 7.14135e-15 0.0 -3.72721e-17 2.1242e-14 3.18055e-15 -7.76503e-17 -0.0 0.0 0.0 -0.0 0.0 0.0 3.77549e-15 -3.74662e-17 1.49089e-16 7.55499e-14 -1.05604e-15 5.96354e-16 1.27774e-12 -4.11285e-13 6.36111e-15 1.46562e-11 2.38716e-13 -8.90555e-14 3.45582e-11 -3.69349e-13 -1.49486e-13 5.96688e-11 -6.3293e-13 -2.52854e-13 3.45619e-11 -3.69342e-13 -1.59028e-13 7.73091 5.47488 0.417314 3.45564e-11 -3.69938e-13 -1.43125e-13 2.90554 0.965183 0.102902 3.45642e-11 -3.69243e-13 -1.4392e-13 10.2786 0.731801 0.0259123 3.45472e-11 -3.66956e-13 -1.30403e-13 2.22167 -0.733487 -0.20892 3.57977e-15 -3.47485e-17 -1.98785e-16 7.35794e-14 -1.24862e-15 -3.97569e-16 1.28032e-12 3.54234e-13 -3.49861e-14 1.46426e-11 -5.29264e-13 -2.22639e-14 3.45445e-11 -3.74355e-13 -1.43125e-13 5.96708e-11 -6.45653e-13 -2.41722e-13 3.45404e-11 -3.7451e-13 -1.30403e-13 -7.73091 5.47488 -0.417314 3.45453e-11 -3.7461e-13 -1.39944e-13 -2.90554 0.965183 -0.102902 3.45463e-11 -3.74411e-13 -1.4233e-13 -10.2786 0.731801 -0.0259123 3.45557e-11 -3.73318e-13 -1.59028e-13 -2.22167 -0.733487 0.20892 -2.03217e-16 0.0 -3.88251e-19 1.35587 -5.84651 -0.122719 0.00113171 5.03399 0.0414016 -0.480883 0.811093 0.0710917 2.03217e-16 0.0 3.88251e-19 0.426445 -1.91991 0.00997186 0.0089894 -2.0786 0.0740827 0.459262 3.99698 -0.132484
149.505 83.6557 -8.21167 6.1837 -80.6371 -0.9451 -0.332191 -2.55305 1.10473 1.34953 -0.505721 0.413875 -3.64736 4.46015 -1.5093 10.1125 -5.71515 -1.52957 -0.0 0.0 0.0 -0.0 0.0 0.0 5.24909e-15 2.82965e-15 2.0021e-14 24.5709 -3.35042 -1.79984 -3.76696 -1.63047 5.96871 0.0258908 3.57064 0.498307 3.70998e-11 8.85441e-13 6.19198e-11 6.47374e-11 1.94715e-12 1.0678e-10 3.71042e-11 8.84675e-13 6.1913e-11 7.73091 5.47488 0.417314 3.70986e-11 8.83475e-13 6.19269e-11 2.90554 0.965183 0.102902 3.71073e-11 8.846e-13 6.19232e-11 10.2786 0.731801 0.0259123 3.70907e-11 8.86027e-13 6.19364e-11 2.22167 -0.733487 -0.20892 5.0896e-15 2.83031e-15 1.96366e-14 -24.8635 -4.28975 2.68274 7.10416 -4.12559 -9.94979 -0.0536327 -5.25479 0.728026 5.23247e-11 -5.15587e-11 -1.15843e-10 9.30147e-11 -8.6459e-11 -2.00508e-10 5.23224e-11 -5.1555e-11 -1.15832e-10 -7.73091 5.47488 -0.417314 5.23259e-11 -5.15582e-11 -1.1584e-10 -2.90554 0.965183 -0.102902 5.2325e-11 -5.15578e-11 -1.15844e-10 -10.2786 0.731801 -0.0259123 5.23342e-11 -5.15561e-11 -1.15856e-10 -2.22167 -0.733487 0.20892 -2.03217e-16 0.0 -3.88251e-19 0.708924 -8.24049 -0.200471 0.030214 10.7145 0.158612 -1.00944 -5.29724 -3.96501 2.03217e-16 0.0 3.88251e-19 1.02884 -6.40594 -0.609241 -0.0156597 7.12406 -0.0898319 0.544605 -2.64593 0.721723
149.515 83.6507 -8.19416 6.0392 -80.6489 -0.753 -1.81859 -5.24722 2.25279 2.44605 -1.03097 0.794484 -7.24399 9.17204 -3.14522 20.473 -11.7574 -3.21402 -0.0 0.0 0.0 -0.0 0.0 0.0 6.69024e-15 3.96545e-15 4.09403e-14 50.3116 -6.89841 -3.72639 -7.38127 -3.29465 12.2928 -0.0147635 7.34043 1.031 5.31621e-11 3.10444e-12 1.47678e-10 9.34462e-11 6.3464e-12 2.54589e-10 5.31673e-11 3.10285e-12 1.47675e-10 7.73091 5.47488 0.417314 5.31617e-11 3.10098e-12 1.47686e-10 2.90554 0.965183 0.102902 5.31713e-11 3.10259e-12 1.47679e-10 10.2786 0.731801 0.0259123 5.3155e-11 3.10308e-12 1.47692e-10 2.22167 -0.733487 -0.20892 6.56666e-15 3.96383e-15 4.05117e-14 -50.6997 -8.83894 5.56672 13.0931 -8.08806 -20.6512 0.0396705 -10.933 1.53642 6.79472e-11 -1.14554e-10 -2.47998e-10 1.2289e-10 -1.92472e-10 -4.29298e-10 6.79467e-11 -1.14546e-10 -2.47988e-10 -7.73091 5.47488 -0.417314 6.79488e-11 -1.14553e-10 -2.47994e-10 -2.90554 0.965183 -0.102902 6.79459e-11 -1.14552e-10 -2.48e-10 -10.2786 0.731801 -0.0259123 6.79547e-11 -1.1455e-10 -2.48007e-10 -2.22167 -0.733487 0.20892 -2.03217e-16 0.0 -3.88251e-19 0.0138342 -10.7755 -0.289435 0.0345193 16.7218 0.289206 -2.51597 -11.6576 -8.36192 2.03217e-16 0.0 3.88251e-19 1.55431 -11.1486 -1.28662 0.0174023 16.8526 -0.273477 0.854817 -9.66515 1.65516
149.53 83.6434 -8.16691 5.8333 -80.7069 -0.4716 -3.04587 -7.63834 3.27543 3.42188 -1.50746 1.13014 -10.2213 13.3428 -4.63968 29.3872 -17.0954 -4.77744 -0.0 0.0 0.0 -0.0 0.0 0.0 8.19629e-15 8.5639e-15 5.97647e-14 73.0741 -10.0113 -5.47389 -10.2973 -4.67948 17.9608 -0.111441 10.7087 1.51847 4.2183e-11 3.39502e-12 1.86058e-10 7.48745e-11 7.1073e-12 3.20845e-10 4.21888e-11 3.39271e-12 1.86057e-10 7.73091 5.47488 0.417314 4.21831e-11 3.3903e-12 1.86067e-10 2.90554 0.965183 0.102902 4.21935e-11 3.39229e-12 1.86057e-10 10.2786 0.731801 0.0259123 4.21776e-11 3.39199e-12 1.8607e-10 2.22167 -0.733487 -0.20892 8.10927e-15 8.56042e-15 5.93073e-14 -73.3638 -12.755 8.23011 17.1663 -10.8848 -30.3735 0.252917 -15.754 2.25983 8.78853e-11 -1.53927e-10 -3.47244e-10 1.59702e-10 -2.58086e-10 -6.0104e-10 8.78863e-11 -1.53916e-10 -3.47236e-10 -7.73091 5.47488 -0.417314 8.78871e-11 -1.53925e-10 -3.47241e-10 -2.90554 0.965183 -0.102902 8.78825e-11 -1.53925e-10 -3.47248e-10 -10.2786 0.731801 -0.0259123 8.78911e-11 -1.53922e-10 -3.47251e-10 -2.22167 -0.733487 0.20892 -2.03217e-16 0.0 -3.88251e-19 -0.605003 -13.0283 -0.360318 0.0134149 22.0753 0.415516 -4.72684 -17.1571 -12.5535 2.03217e-16 0.0 3.88251e-19 1.93325 -15.371 -1.90439 0.105428 25.5287 -0.460437 1.32645 -15.9177 2.52402
149.542 83.638 -8.16365 5.652 -80.7526 -0.2319 -3.83323 -9.28257 3.95944 4.08283 -1.86231 1.35309 -12.1742 16.1978 -5.67163 35.3895 -20.7227 -5.85219 -0.0 0.0 0.0 -0.0 0.0 0.0 9.86458e-15 2.18189e-14 7.33515e-14 88.8516 -12.0753 -6.70091 -12.1684 -5.56742 21.9364 -0.214409 13.0761 1.87064 -3.63999e-11 -1.13546e-12 1.05992e-10 -6.18988e-11 -1.22769e-12 1.83222e-10 -3.63935e-11 -1.13824e-12 1.05992e-10 7.73091 5.47488 0.417314 -3.63997e-11 -1.14083e-12 1.06002e-10 2.90554 0.965183 0.102902 -3.63888e-11 -1.13874e-12 1.0599e-10 10.2786 0.731801 0.0259123 -3.64044e-11 -1.13943e-12 1.06002e-10 2.22167 -0.733487 -0.20892 9.81577e-15 2.18147e-14 7.29043e-14 -88.9919 -15.1995 10.1601 19.3558 -12.2225 -37.1379 0.436216 -18.4431 2.68639 1.18612e-10 -1.34245e-10 -3.64221e-10 2.13859e-10 -2.22699e-10 -6.30159e-10 1.18614e-10 -1.34232e-10 -3.64215e-10 -7.73091 5.47488 -0.417314 1.18614e-10 -1.34243e-10 -3.64218e-10 -2.90554 0.965183 -0.102902 1.18609e-10 -1.34242e-10 -3.64226e-10 -10.2786 0.731801 -0.0259123 1.18617e-10 -1.34239e-10 -3.64228e-10 -2.22167 -0.733487 0.20892 -2.03217e-16 0.0 -3.88251e-19 -1.01667 -14.5758 -0.382001 -0.0165984 25.7943 0.511467 -6.80136 -20.8436 -15.7328 2.03217e-16 0.0 3.88251e-19 2.16643 -18.2997 -2.32004 0.206667 31.5745 -0.612858 1.75396 -20.2686 3.12863
149.53 83.6429 -8.15625 5.6653 -80.7577 -0.3019 -4.10497 -9.87709 4.13493 4.29876 -2.04965 1.41353 -12.965 17.244 -5.9916 37.7064 -21.9748 -6.13291 -0.0 0.0 0.0 -0.0 0.0 0.0 1.13113e-14 4.57245e-14 8.65315e-14 95.0633 -12.6983 -7.14293 -12.8665 -5.89424 23.4993 -0.26654 14.0949 2.025 -2.6852e-10 -7.7244e-11 -2.0346e-10 -4.66669e-10 -1.35044e-10 -3.48958e-10 -2.68513e-10 -7.7247e-11 -2.0346e-10 7.73091 5.47488 0.417314 -2.68521e-10 -7.72491e-11 -2.03449e-10 2.90554 0.965183 0.102902 -2.6851e-10 -7.72474e-11 -2.03463e-10 10.2786 0.731801 0.0259123 -2.68525e-10 -7.72479e-11 -2.03452e-10 2.22167 -0.733487 -0.20892 1.13105e-14 4.5721e-14 8.61603e-14 -95.1793 -15.6733 10.9457 20.0052 -12.4905 -39.5373 0.440719 -18.168 2.64621 1.67688e-10 7.35959e-11 -2.11689e-10 2.97666e-10 1.36722e-10 -3.65317e-10 1.67689e-10 7.36064e-11 -2.11684e-10 -7.73091 5.47488 -0.417314 1.6769e-10 7.35972e-11 -2.11687e-10 -2.90554 0.965183 -0.102902 1.67683e-10 7.35975e-11 -2.11695e-10 -10.2786 0.731801 -0.0259123 1.67692e-10 7.36e-11 -2.11698e-10 -2.22167 -0.733487 0.20892 -2.03217e-16 0.0 -3.88251e-19 -1.12318 -15.1266 -0.310544 -0.0315453 27.2266 0.551486 -7.78762 -22.2477 -17.1498 2.03217e-16 0.0 3.88251e-19 2.30605 -19.4113 -2.39894 0.257165 33.9394 -0.678313 1.89823 -21.9695 3.27003
149.511 83.6506 -8.15509 5.5086 -80.7074 -0.2327 -4.02746 -9.72415 3.94343 4.19524 -2.11725 1.35804 -12.9779 17.0045 -5.78126 37.4591 -21.5395 -5.81005 -0.0 0.0 0.0 -0.0 0.0 0.0 1.26211e-14 7.73074e-14 9.90911e-14 94.4867 -12.2992 -7.01158 -12.7927 -5.86051 23.3313 -0.267056 14.1486 2.03283 -6.07505e-10 -2.01393e-10 -6.73731e-10 -1.05799e-09 -3.53122e-10 -1.15777e-09 -6.07498e-10 -2.01396e-10 -6.73734e-10 7.73091 5.47488 0.417314 -6.07507e-10 -2.01397e-10 -6.73719e-10 2.90554 0.965183 0.102902 -6.07496e-10 -2.01396e-10 -6.73734e-10 10.2786 0.731801 0.0259123 -6.07512e-10 -2.01396e-10 -6.73726e-10 2.22167 -0.733487 -0.20892 1.26751e-14 7.73059e-14 9.88426e-14 -94.7095 -14.7606 10.8851 19.7466 -12.2424 -38.7874 0.321836 -15.7746 2.27456 2.29716e-10 4.10813e-10 5.93332e-11 4.02396e-10 7.18899e-10 1.05007e-10 2.29715e-10 4.10818e-10 5.93374e-11 -7.73091 5.47488 -0.417314 2.29717e-10 4.10812e-10 5.93346e-11 -2.90554 0.965183 -0.102902 2.2971e-10 4.10812e-10 5.93264e-11 -10.2786 0.731801 -0.0259123 2.2972e-10 4.10813e-10 5.93203e-11 -2.22167 -0.733487 0.20892 -2.03217e-16 0.0 -3.88251e-19 -1.01214 -14.966 -0.173485 -0.0286212 27.0255 0.547488 -7.76805 -22.1014 -17.1995 2.03217e-16 0.0 3.88251e-19 2.40048 -19.2267 -2.22852 0.251657 33.6753 -0.668361 1.79105 -21.7804 3.05579
149.511 83.6506 -8.16637 5.202 -80.6626 0.0807 -3.79541 -9.29013 3.63298 3.96105 -2.13277 1.26337 -12.6261 16.2385 -5.33989 36.0825 -20.4524 -5.21103 -0.0 0.0 0.0 -0.0 0.0 0.0 1.45941e-14 1.14311e-13 1.00321e-13 91.1815 -11.4904 -6.66205 -12.4197 -5.6894 22.4895 -0.242879 13.736 1.96966 -8.95009e-10 -2.41032e-10 -1.10663e-09 -1.55989e-09 -4.24507e-10 -1.90263e-09 -8.95002e-10 -2.41034e-10 -1.10664e-09 7.73091 5.47488 0.417314 -8.95013e-10 -2.41035e-10 -1.10662e-09 2.90554 0.965183 0.102902 -8.95002e-10 -2.41034e-10 -1.10664e-09 10.2786 0.731801 0.0259123 -8.95018e-10 -2.41034e-10 -1.10663e-09 2.22167 -0.733487 -0.20892 1.46934e-14 1.14312e-13 1.00196e-13 -91.5632 -13.2744 10.4832 19.099 -11.7604 -36.7845 0.194619 -12.5108 1.78527 2.91734e-10 6.31011e-10 2.90821e-10 5.06904e-10 1.09796e-09 5.06661e-10 2.9173e-10 6.31012e-10 2.90824e-10 -7.73091 5.47488 -0.417314 2.91734e-10 6.31009e-10 2.90821e-10 -2.90554 0.965183 -0.102902 2.91728e-10 6.31008e-10 2.90813e-10 -10.2786 0.731801 -0.0259123 2.91738e-10 6.31009e-10 2.90804e-10 -2.22167 -0.733487 0.20892 -2.03217e-16 0.0 -3.88251e-19 -0.829027 -14.5354 -0.0461002 -0.018578 26.1694 0.525718 -7.32725 -21.3341 -16.6759 2.03217e-16 0.0 3.88251e-19 2.46125 -18.5399 -1.98741 0.223937 32.358 -0.628521 1.59691 -20.8333 2.71397
149.507 83.6482 -8.17058 5.2104 -80.6458 0.1201 -3.60934 -9.0422 3.45052 3.78524 -2.16384 1.20632 -12.3307 15.7066 -4.9643 35.0328 -19.7527 -4.65387 -0.0 0.0 0.0 -0.0 0.0 0.0 1.80304e-14 1.5448e-13 7.95139e-14 89.2161 -10.8852 -6.44638 -12.2175 -5.60234 22.0315 -0.22388 13.3553 1.91207 -9.72685e-10 -6.36111e-11 -1.30398e-09 -1.69645e-09 -1.1825e-10 -2.24297e-09 -9.72678e-10 -6.36135e-11 -1.30399e-09 7.73091 5.47488 0.417314 -9.72689e-10 -6.36135e-11 -1.30397e-09 2.90554 0.965183 0.102902 -9.72679e-10 -6.36135e-11 -1.30398e-09 10.2786 0.731801 0.0259123 -9.72695e-10 -6.36123e-11 -1.30398e-09 2.22167 -0.733487 -0.20892 1.81496e-14 1.54482e-13 7.94642e-14 -89.7415 -12.0303 10.2316 18.6156 -11.3642 -35.4163 0.115047 -9.62747 1.36606 3.40781e-10 4.87799e-10 3.24747e-10 5.90043e-10 8.48044e-10 5.65496e-10 3.40776e-10 4.87797e-10 3.24751e-10 -7.73091 5.47488 -0.417314 3.40781e-10 4.87796e-10 3.24747e-10 -2.90554 0.965183 -0.102902 3.40774e-10 4.87795e-10 3.2474e-10 -10.2786 0.731801 -0.0259123 3.40785e-10 4.87795e-10 3.24728e-10 -2.22167 -0.733487 0.20892 -2.03217e-16 0.0 -3.88251e-19 -0.714445 -14.2764 -0.00239859 -0.0124639 25.6368 0.512578 -7.07492 -20.8639 -16.3833 2.03217e-16 0.0 3.88251e-19 2.50847 -18.146 -1.85143 0.20844 31.5634 -0.604803 1.46761 -20.2619 2.46835
